<?xml version="1.0" encoding="UTF-8"?>
<svg id="_Слой_2" data-name="Слой_2" xmlns="http://www.w3.org/2000/svg" viewBox="0 0 1506 542.7">
  <defs>
    <style>
      .cls-1 {
        fill: #fff;
      }
    </style>
  </defs>
  <g id="_Слой_1-2" data-name="Слой_1">
    <g>
      <path class="cls-1" d="M594.79,135.68h327.96c10.6-55.65,42.5-103.8,86.88-135.68h-501.72c44.38,31.87,76.28,80.03,86.88,135.68Z"/>
      <path class="cls-1" d="M381.59,214.37H0v328.34h135.68v-192.66h178.07c37.47,0,67.84-30.37,67.84-67.84v-67.84Z"/>
      <path class="cls-1" d="M821.55,542.7h-398.92V176.38c0-22.48-18.22-40.7-40.7-40.7H2.04V0h379.89c97.41,0,176.38,78.97,176.38,176.38v230.65h263.25c76.41,0,138.35-61.94,138.35-138.35v-92.3c0-97.41,78.97-176.38,176.38-176.38h367.68v135.68h-367.68c-22.48,0-40.7,18.22-40.7,40.7v92.3c0,151.34-122.69,274.03-274.03,274.03Z"/>
      <path class="cls-1" d="M1506,217.08v216.13c0,60.46-49.03,109.49-109.49,109.49,0,0-201.61-.57-302.1-1.28l.03-.08h-38.4c44.37-31.88,76.28-80.02,86.86-135.68h227.42v-66.48h-80.05v-122.11h215.72Z"/>
    </g>
  </g>
</svg>